<svg width="39" height="43" viewBox="0 0 39 43" fill="none" xmlns="http://www.w3.org/2000/svg">
<path d="M8.8136 1.47131C7.3761 2.19006 5.7511 4.12756 5.4386 5.50256C5.3136 6.06506 5.0011 6.44006 4.5011 6.56506C4.09485 6.65881 3.34485 7.12756 2.78235 7.56506C0.0323501 9.90881 0.28235 14.0651 3.3136 15.9713C4.03235 16.4088 4.3136 16.8463 4.34485 17.4088C4.34485 18.4713 5.5011 20.1588 6.8136 21.0338C7.9386 21.8151 10.4386 22.0338 11.5011 21.4401C11.9699 21.1901 12.1261 21.3463 12.4386 22.4088C13.3449 25.4401 16.9074 27.5026 20.0324 26.8463C21.5324 26.5651 21.5636 26.5651 21.3761 27.1901C21.2511 27.5651 21.0949 28.3463 21.0011 28.9713C20.8136 30.4088 21.3761 30.8463 23.6886 31.0963L25.5011 31.2838L23.6574 36.2213C22.6261 38.9401 21.8761 41.3463 21.9699 41.5963C22.4386 42.8151 23.4699 41.8151 29.3136 34.5651C35.6261 26.7213 36.0636 25.9713 34.7823 24.9088C34.3448 24.5338 34.2198 24.0963 34.2823 23.2526C34.3761 22.3463 34.5636 22.0651 35.3136 21.7526C36.5011 21.2526 38.2823 19.1901 38.7511 17.7838C38.9386 17.1901 39.0323 15.8151 38.9698 14.7213C38.8136 12.3151 37.7511 10.5338 35.7511 9.31506C34.8136 8.72131 34.3448 8.19006 34.2198 7.53381C33.6573 4.84631 30.5636 2.59631 27.6261 2.72131C26.2199 2.78381 25.7511 2.65881 24.6261 1.87756C23.5324 1.12756 22.9386 0.97131 21.0949 0.87756C19.1886 0.78381 18.6886 0.87756 17.6574 1.53381L16.4386 2.31506L15.0324 1.56506C13.1886 0.59631 10.6574 0.56506 8.8136 1.47131ZM15.1261 2.94006L16.3761 3.81506L17.5636 2.97131C20.1574 1.09631 22.8136 1.56506 25.8136 4.50256C27.4699 6.09631 28.0011 6.15881 27.6574 4.69006C27.4699 4.00256 27.5636 3.94006 28.5011 3.94006C29.7824 3.94006 31.4074 4.97131 32.3761 6.40881C33.3448 7.81506 33.2823 8.12756 32.0011 8.59631C31.4074 8.81506 30.9074 9.19006 30.9074 9.44006C30.9074 9.81506 31.1886 9.87756 32.2824 9.72131C34.8448 9.31506 37.0323 11.0338 37.8136 14.0338C38.5011 16.7838 37.0323 19.7213 34.4386 20.8776C33.6573 21.2213 32.9698 21.4401 32.9073 21.3463C32.8136 21.2838 33.2511 20.1901 33.8761 18.9088C34.4698 17.6588 34.9698 16.3151 34.9698 15.9088C34.9698 14.7526 33.8448 14.2526 31.3136 14.2526H29.0324V13.1588C29.0324 10.6276 26.8761 8.34631 24.4386 8.22131C23.0324 8.19006 21.1261 8.87756 21.3136 9.37756C21.4386 9.72131 21.8761 9.72131 23.5949 9.37756C26.6261 8.78381 29.1574 12.8463 27.0011 14.8776C26.5636 15.2838 26.2199 15.7838 26.2199 16.0026C26.2199 16.4401 24.1886 17.1588 21.4699 17.6901C19.4074 18.0963 17.2511 19.5026 16.9699 20.6588C16.6574 21.9401 17.0636 21.9401 18.3761 20.5963C19.4386 19.4713 19.9074 19.2526 22.3449 18.6901C23.8761 18.3463 25.1574 18.0963 25.2199 18.1276C25.2511 18.1901 24.8449 19.1901 24.2824 20.3776C23.4074 22.3151 23.2824 22.4401 23.1574 21.6588C23.0949 21.0338 22.9074 20.8151 22.5324 20.8776C21.8136 21.0026 21.7199 21.8776 22.2824 23.0338C22.8761 24.2213 22.5949 24.7213 21.0011 25.4088C16.6261 27.2213 11.9074 22.8463 13.9074 18.8463C15.0949 16.5338 16.6886 15.4088 20.5011 14.2838C22.7511 13.5963 23.2824 13.2526 22.9386 12.7213C22.5636 12.0651 15.9699 14.4713 15.0324 15.5963C14.6886 16.0026 14.5011 15.9401 13.7199 15.2526C12.5949 14.2526 12.5324 13.4401 13.5011 12.0338C14.2824 10.8463 15.6574 10.0651 17.7511 9.53381C19.4699 9.12756 21.3136 7.40881 21.1574 6.37756C21.0324 5.47131 20.1574 5.44006 20.0324 6.31506C19.8761 7.31506 19.0011 7.97131 16.9074 8.62756L15.0011 9.19006L14.8136 8.28381C14.6886 7.81506 14.0636 6.81506 13.4074 6.06506C12.4386 4.97131 12.1261 4.78381 11.8136 5.09631C11.5011 5.40881 11.5636 5.65881 12.2511 6.34631C12.6886 6.84631 13.2824 7.75256 13.5636 8.40881L14.0636 9.62756L13.0011 10.8151C12.4074 11.4713 11.8136 12.4088 11.6886 12.9401C11.5949 13.4713 11.2824 13.9713 11.0324 14.0651C10.3761 14.3151 10.5011 15.1901 11.1886 15.1901C11.5324 15.1901 12.2199 15.5338 12.7511 15.9713L13.6886 16.7838L12.8449 18.3776C12.2511 19.5026 11.7199 20.0963 10.9699 20.4088C8.59485 21.4088 5.84485 19.7213 5.4386 16.9713C5.28235 15.9713 5.0636 15.5026 4.7511 15.5026C3.9386 15.5026 2.21985 13.5026 2.0011 12.2838C1.5636 10.0026 3.40735 7.75256 5.96985 7.47131C7.6886 7.28381 9.1261 7.94006 9.8136 9.25256C10.3136 10.2213 10.7199 10.4088 11.0636 9.87756C11.6261 8.97131 9.3136 6.59631 7.5011 6.25256C6.3761 6.03381 6.40735 6.03381 6.96985 4.94006C8.59485 1.87756 12.2824 0.97131 15.1261 2.94006ZM33.7823 15.6901C33.8761 15.7838 33.0011 17.8463 31.8449 20.2838C30.6886 22.7213 29.8136 24.9088 29.8761 25.0963C29.9699 25.3776 30.7199 25.5026 32.0324 25.5026C33.5011 25.5026 34.0948 25.6276 34.2198 25.9401C34.3136 26.2213 32.3136 29.0026 29.1261 32.9401C26.2511 36.5651 23.8449 39.4713 23.8136 39.4401C23.7511 39.3776 24.4386 37.4401 25.3136 35.0963C26.1886 32.7526 26.8449 30.6276 26.7511 30.3463C26.5949 30.0026 26.0324 29.8776 24.3761 29.8776C23.1886 29.8776 22.1261 29.7526 22.0011 29.5963C21.8449 29.3151 26.0949 18.8151 27.3449 16.3463C27.7824 15.5026 27.8449 15.5026 30.7199 15.5026C32.3136 15.5026 33.6886 15.5963 33.7823 15.6901ZM33.4073 22.8151C33.4073 22.9088 33.2823 23.3151 33.0948 23.7526C32.8761 24.3463 32.5636 24.5651 32.0011 24.5651C31.0949 24.5651 31.0949 24.5651 31.5949 23.4713C31.8136 22.9713 32.1886 22.6901 32.6886 22.6901C33.0636 22.6901 33.4073 22.7526 33.4073 22.8151Z" fill="white"/>
</svg>
