<svg width="38" height="33" viewBox="0 0 38 33" fill="none" xmlns="http://www.w3.org/2000/svg">
<path d="M17.311 0.471191C15.436 1.25244 14.3735 3.43994 14.7798 5.68994C14.9985 6.68994 14.936 6.75244 14.436 6.47119C14.1235 6.31494 12.686 5.15869 11.2173 3.93994C7.81101 1.03369 7.37351 0.846191 6.27976 1.65869C5.77976 2.03369 5.40476 2.62744 5.34226 3.18994C5.24851 3.97119 5.81101 4.68994 9.65476 8.68994C13.811 13.0337 14.0298 13.3149 14.0298 14.5337C14.0298 15.5962 14.1235 15.8149 14.6548 15.8149C15.2173 15.8149 15.2798 15.5962 15.2798 14.0337V12.2212L10.8735 7.81494C6.84226 3.78369 6.06101 2.65869 7.24851 2.68994C7.46726 2.68994 8.87351 3.75244 10.3735 5.03369C14.3423 8.31494 15.3735 8.78369 19.0298 8.78369C22.686 8.78369 23.7173 8.31494 27.686 5.03369C29.186 3.75244 30.5923 2.68994 30.811 2.68994C31.9985 2.65869 31.2173 3.78369 27.186 7.81494L22.7798 12.2212V14.0337C22.7798 15.5962 22.8423 15.8149 23.4048 15.8149C23.936 15.8149 24.0298 15.5962 24.0298 14.5337C24.0298 13.3149 24.2173 13.0337 28.4048 8.68994C32.2798 4.68994 32.811 4.00244 32.7173 3.18994C32.6548 2.62744 32.311 2.03369 31.7798 1.65869C30.686 0.846191 30.186 1.06494 27.2798 3.53369C26.0923 4.56494 24.686 5.68994 24.186 6.03369L23.2485 6.68994V4.78369C23.2485 2.56494 22.6548 1.47119 20.9985 0.658691C19.9673 0.158691 18.311 0.0649414 17.311 0.471191ZM21.2173 2.53369C22.311 3.65869 22.2798 5.50244 21.1235 6.65869C19.2485 8.56494 16.061 7.25244 16.061 4.59619C16.061 1.81494 19.2173 0.533691 21.2173 2.53369Z" fill="white"/>
<path d="M5.43555 14.8462C2.99805 15.8462 1.93555 19.6587 3.5918 21.4712C4.06055 22.0025 4.0293 22.065 3.31055 22.2212C2.9043 22.3462 2.06055 22.9087 1.49805 23.5025C0.498047 24.5337 0.435547 24.7525 0.341797 27.0337L0.216797 29.4712L1.5918 30.0337C3.0293 30.6587 8.18555 31.0337 10.0918 30.69C10.9043 30.5337 11.123 30.3462 10.998 29.94C10.873 29.4712 10.4355 29.3775 7.37305 29.3775C5.24805 29.3775 3.4043 29.2212 2.6543 28.9712L1.4668 28.565L1.5918 26.8462C1.7168 25.5337 1.93555 24.9712 2.5918 24.315C3.4043 23.5025 3.5293 23.4712 7.12305 23.4712C10.5293 23.4712 10.9043 23.5337 11.5918 24.1587C12.2168 24.7525 12.373 24.7837 12.873 24.4087C13.4355 24.0025 13.4355 23.9712 12.7793 23.315C12.4043 22.94 11.6855 22.5025 11.1855 22.315C10.2793 22.0025 10.248 21.9712 10.8105 21.3775C11.623 20.4712 11.5918 17.5025 10.748 16.3775C9.62305 14.8462 7.18555 14.1587 5.43555 14.8462ZM9.3418 16.9087C10.4355 18.0337 10.4043 19.8775 9.24805 21.0337C7.37305 22.94 4.18555 21.6275 4.18555 18.9712C4.18555 16.19 7.3418 14.9087 9.3418 16.9087Z" fill="white"/>
<path d="M29.1852 14.8462C26.779 15.8462 25.6852 19.6587 27.3415 21.4712C27.779 21.94 27.7165 22.0337 26.8727 22.315C26.3727 22.5025 25.654 22.94 25.279 23.315C24.6227 23.9712 24.6227 24.0025 25.1852 24.4087C25.6852 24.7837 25.8415 24.7525 26.4665 24.1587C27.154 23.5337 27.529 23.4712 30.9352 23.4712C34.529 23.4712 34.654 23.5025 35.4665 24.315C36.1227 24.9712 36.3415 25.5337 36.4665 26.8462L36.5915 28.565L35.404 28.9712C34.654 29.2212 32.8102 29.3775 30.6852 29.3775C27.6227 29.3775 27.1852 29.4712 27.0602 29.94C26.9352 30.3462 27.154 30.5337 27.9665 30.69C29.8727 31.0337 35.029 30.6587 36.4665 30.0337L37.8415 29.4712L37.7165 27.0337C37.6227 24.7525 37.5602 24.5337 36.5602 23.5025C35.9977 22.9087 35.154 22.3462 34.7477 22.2212C33.9665 22.0337 33.9665 22.0337 34.529 21.3775C35.3727 20.4712 35.3415 17.5337 34.4977 16.3775C33.3727 14.8462 30.9352 14.1587 29.1852 14.8462ZM33.0915 16.9087C34.1852 18.0337 34.154 19.8775 32.9977 21.0337C31.1227 22.94 27.9352 21.6275 27.9352 18.9712C27.9352 16.19 31.0915 14.9087 33.0915 16.9087Z" fill="white"/>
<path d="M17.3105 16.7212C14.873 17.7212 13.8105 21.5337 15.4668 23.3462C15.9355 23.8774 15.9043 23.9399 15.1855 24.0962C14.7793 24.2212 13.9355 24.7837 13.373 25.3774C12.373 26.4087 12.3105 26.6274 12.2168 28.9087L12.0918 31.3774L13.5918 31.9399C14.8105 32.4087 15.9668 32.5337 19.0293 32.5337C22.0918 32.5337 23.248 32.4087 24.4668 31.9399L25.9668 31.3774L25.8418 28.9712C25.7168 26.2212 25.1543 25.1899 23.3418 24.3462C22.2168 23.8462 22.1855 23.8149 22.7168 23.2212C23.498 22.3462 23.4355 19.3774 22.623 18.2524C21.498 16.7212 19.0605 16.0337 17.3105 16.7212ZM21.2168 18.7837C22.3105 19.9087 22.2793 21.7524 21.123 22.9087C19.248 24.8149 16.0605 23.5024 16.0605 20.8462C16.0605 18.0649 19.2168 16.7837 21.2168 18.7837ZM23.5918 26.1899C24.248 26.8462 24.4668 27.4087 24.5918 28.7212L24.7168 30.4399L23.5293 30.8462C22.8105 31.0962 20.9355 31.2524 19.0293 31.2524C17.123 31.2524 15.248 31.0962 14.5293 30.8462L13.3418 30.4399L13.4668 28.7524C13.623 27.0337 14.248 26.0024 15.4355 25.4712C15.7793 25.3149 17.5605 25.2212 19.4043 25.2837C22.5918 25.3462 22.8105 25.3774 23.5918 26.1899Z" fill="white"/>
</svg>
