<svg width="42" height="42" viewBox="0 0 42 42" fill="none" xmlns="http://www.w3.org/2000/svg">
<path d="M3.42128 3.65011C3.19149 3.89905 3 4.16714 3 4.26289C3 4.37778 3.91916 5.35439 5.02981 6.48419C6.79154 8.24592 7.00218 8.53316 6.75324 8.7438C6.5809 8.89699 6.44685 9.14593 6.44685 9.31827C6.44685 9.56721 6.86814 9.73956 8.28518 10.0842C9.28093 10.3332 10.1618 10.4672 10.2384 10.4098C10.3724 10.2566 9.52987 6.69483 9.31923 6.56079C9.24263 6.50334 8.9554 6.63739 8.70646 6.84803L8.22773 7.21186L6.23621 5.2012C5.14471 4.10969 4.14895 3.20968 4.03406 3.20968C3.91916 3.20968 3.65107 3.40118 3.42128 3.65011Z" fill="white"/>
<path d="M35.7646 5.2012L33.7731 7.21186L33.2944 6.84803C33.0454 6.63739 32.7582 6.50334 32.6816 6.56079C32.4709 6.69483 31.6284 10.2566 31.7624 10.4098C31.839 10.4672 32.7199 10.3332 33.7156 10.0842C35.1327 9.73956 35.554 9.56721 35.554 9.31827C35.554 9.14593 35.4199 8.89699 35.2476 8.7438C34.9986 8.53316 35.2093 8.24592 36.971 6.48419C38.0816 5.35439 39.0008 4.35863 39.0008 4.24374C39.0008 3.9948 38.1774 3.20968 37.9285 3.20968C37.8327 3.20968 36.8561 4.10969 35.7646 5.2012Z" fill="white"/>
<path d="M20.7521 3.7268C20.6755 3.78424 20.618 4.43532 20.618 5.14384C20.618 6.54173 20.5223 6.65662 19.3925 6.65662C18.2818 6.65662 15.8499 7.38429 14.3179 8.18856C11.4839 9.66305 9.30084 11.8844 7.84551 14.7759C7.13699 16.1929 6.44762 18.5674 6.44762 19.6589C6.44762 20.693 6.29442 20.8079 4.81994 20.8653C3.78588 20.9036 3.47949 20.9802 3.47949 21.21C3.47949 21.4398 3.78588 21.5164 4.81994 21.5547C6.29442 21.6121 6.44762 21.727 6.44762 22.7611C6.44762 23.8526 7.13699 26.2271 7.84551 27.6441C9.31999 30.574 11.5987 32.8527 14.3945 34.2506C16.0797 35.074 18.5116 35.7634 19.7754 35.7634H20.5989L20.6563 37.2379C20.6946 38.157 20.7904 38.7315 20.9436 38.7698C21.1159 38.8273 21.1925 38.4251 21.2308 37.3528L21.2882 35.8591L22.5904 35.7251C28.5458 35.1315 33.6778 30.6697 35.1714 24.7718C35.382 23.9292 35.5544 22.876 35.5544 22.4164V21.593H36.8565C37.565 21.593 38.2544 21.5164 38.4076 21.4206C38.9629 21.076 38.3693 20.827 36.9714 20.827H35.5544V20.0036C35.5544 18.7781 34.8842 16.327 34.1182 14.7759C33.2565 12.995 31.782 11.1184 30.3267 9.91199C28.2968 8.22686 24.5053 6.65662 22.4946 6.65662C21.2499 6.65662 21.1925 6.58003 21.1925 5.00979C21.1925 3.70765 21.0776 3.38211 20.7521 3.7268ZM21.1925 7.82472C21.1925 8.55239 20.7329 8.49495 20.6563 7.74813C20.618 7.38429 20.6755 7.2311 20.8861 7.2311C21.0967 7.2311 21.1925 7.42259 21.1925 7.82472ZM24.4479 10.0843C28.0096 11.195 31.016 14.2397 32.165 17.8589C32.6629 19.4483 32.7394 22.6653 32.3182 24.0824L32.0501 24.9441L31.5139 22.3781C30.9011 19.4291 30.4798 18.6249 29.1011 17.8206C28.2202 17.3036 28.067 17.2844 25.1755 17.227C22.0925 17.1504 21.6904 17.0355 22.4372 16.4227C22.6287 16.2504 22.7244 15.8099 22.7244 14.9674V13.7418H23.4904H24.2564V12.6886C24.2564 11.8078 24.1798 11.5397 23.7968 11.1567C23.184 10.5439 22.418 10.3716 21.6904 10.678C21.3648 10.812 20.7521 10.9652 20.3308 11.0035C19.3542 11.1184 18.7031 11.712 18.7031 12.478C18.7031 13.3397 19.201 15.0631 19.5457 15.4461C19.718 15.6376 19.852 16.0972 19.852 16.461V17.1504L16.8456 17.227C14.3562 17.2844 13.7052 17.361 13.1498 17.6483C11.5222 18.51 11.1392 19.1802 10.4498 22.359C9.97107 24.6186 9.93277 24.7143 9.72213 24.1781C9.58808 23.8526 9.43489 22.8568 9.37744 21.9568C8.99446 16.2887 12.92 11.0801 18.5116 9.81624C20.1393 9.45241 22.801 9.5673 24.4479 10.0843ZM22.1117 14.8716C22.0542 16.0206 22.0159 16.1546 21.5372 16.3844C21.0584 16.6142 21.0393 16.6334 21.3265 17.1887C21.4797 17.5142 21.7287 17.7632 21.8819 17.7632C22.2265 17.7632 22.2265 18.0504 21.8436 18.4142C21.4989 18.7589 20.7712 18.8164 20.2159 18.5291C19.7754 18.2802 19.718 17.7632 20.1393 17.7632C20.618 17.7632 20.5414 15.5801 20.0244 15.0631C19.718 14.7567 19.6797 14.6227 19.8712 14.3929C19.9861 14.2397 20.2925 14.1248 20.5414 14.1248C20.867 14.1248 21.0201 13.9908 21.1159 13.6652C21.2116 13.2439 21.2691 13.2056 21.6904 13.3971C22.1308 13.6078 22.1691 13.7035 22.1117 14.8716ZM19.2776 18.2227C19.5074 18.8547 20.1967 19.2951 20.9627 19.2951C21.8053 19.2951 22.2648 19.027 22.6287 18.3376L22.9351 17.7632H25.0798C27.6649 17.7632 28.45 17.9546 29.4458 18.8547C30.3075 19.6206 30.499 20.1759 31.1692 23.6611L31.6096 26.0165L31.1501 26.9165C30.4607 28.1995 28.3351 30.3825 26.9181 31.225C22.3797 33.9059 16.5392 33.1782 12.8051 29.4825C12.0966 28.7739 11.2541 27.7016 10.9285 27.0888L10.3349 25.959L10.8711 23.259C11.4839 20.2142 11.9434 19.0844 12.9009 18.51C13.8966 17.8972 14.4137 17.8015 16.8456 17.7823C19.0478 17.7632 19.1052 17.7632 19.2776 18.2227ZM8.1136 21.1526C8.22849 21.4589 7.25188 21.7079 6.98379 21.4398C6.8689 21.3249 6.84975 21.1526 6.92635 21.0185C7.09869 20.7504 8.01785 20.8462 8.1136 21.1526ZM34.9799 21.21C34.9799 21.6121 34.5203 21.727 34.0416 21.4206C33.6778 21.1909 33.965 20.827 34.5203 20.827C34.8459 20.827 34.9799 20.9228 34.9799 21.21ZM21.1925 34.6144C21.1925 34.9974 21.0967 35.1889 20.9053 35.1889C20.618 35.1889 20.5031 34.4229 20.7521 34.174C21.0201 33.8868 21.1925 34.0591 21.1925 34.6144Z" fill="white"/>
<path d="M12.3064 20.5589C12.0574 20.8078 12 21.4397 12 24.3887V27.9122L13.1107 29.0228C14.3553 30.2675 15.8107 31.1675 17.4767 31.742C19.0852 32.2973 22.9342 32.2782 24.6193 31.7229C26.1321 31.2058 28.4492 29.6739 29.33 28.6015L30.0002 27.7781V24.3313C30.0002 21.2291 29.9619 20.8461 29.6556 20.578C29.33 20.2908 28.4492 20.2525 20.9427 20.2525C13.6085 20.2525 12.5745 20.2908 12.3064 20.5589ZM21.9576 25.2313C22.1682 25.4419 22.3406 25.8632 22.3406 26.1887C22.3406 26.5143 22.1682 26.9356 21.9576 27.1462C21.115 27.9888 19.6597 27.3568 19.6597 26.1504C19.6597 25.8249 19.7937 25.3845 19.9852 25.193C20.4065 24.7334 21.4597 24.7334 21.9576 25.2313Z" fill="white"/>
<path d="M8.13198 32.3165C6.08302 32.8527 6.12132 32.8335 6.65749 33.3889L7.09793 33.8676L5.04896 35.9165C3.91916 37.0463 3 38.0613 3 38.1761C3 38.4251 3.80427 39.2102 4.05321 39.2102C4.1681 39.2102 5.16386 38.291 6.29366 37.1612C8.24688 35.208 8.36177 35.1314 8.70646 35.4378C8.89795 35.6102 9.14689 35.7634 9.24263 35.7634C9.39583 35.7634 10.2958 32.5846 10.2767 32.0676C10.2767 31.8569 9.52987 31.9335 8.13198 32.3165Z" fill="white"/>
<path d="M31.7239 32.0676C31.7048 32.5846 32.6048 35.7634 32.758 35.7634C32.8537 35.7634 33.1027 35.6102 33.2942 35.4378C33.6389 35.1314 33.7537 35.208 35.707 37.1612C36.8368 38.291 37.8517 39.2102 37.9666 39.2102C38.2155 39.2102 39.0006 38.4059 39.0006 38.157C39.0006 38.0421 38.0815 37.0463 36.9517 35.9165L34.9027 33.8676L35.3431 33.3889C35.5729 33.1399 35.707 32.891 35.6112 32.8335C35.3623 32.6803 32.375 31.9335 32.0303 31.9335C31.858 31.9335 31.7239 31.991 31.7239 32.0676Z" fill="white"/>
</svg>
