<svg width="42" height="30" viewBox="0 0 42 30" fill="none" xmlns="http://www.w3.org/2000/svg">
<path d="M2.21563 11.2676V22.4648H1.1H-0.015625L0.0171875 23.7938C0.05 24.9832 0.0746094 25.2047 0.279688 25.7871C0.911328 27.6246 2.28945 29.0109 4.14336 29.659L4.79961 29.8887H21.0008H37.202L37.8582 29.659C39.7121 29.0109 41.0902 27.6246 41.7219 25.7871C41.927 25.2047 41.9516 24.9832 41.9844 23.7938L42.0172 22.4648H40.9016H39.7859V11.2676V0.0703144H21.0008H2.21563V11.2676ZM37.243 12.5391V22.4648H29.9504H22.666L22.6168 21.4148C22.5594 20.1844 22.3707 19.3559 21.9031 18.3961C21.2961 17.1328 20.1313 15.9023 18.9828 15.3117L18.4742 15.0492L18.7039 14.7785C19.8523 13.4742 20.0492 11.4645 19.1715 9.91406C18.6383 8.9625 17.5637 8.1668 16.4809 7.9043C13.7246 7.25625 11.075 9.26602 11.075 12.0059C11.075 12.9328 11.4523 13.991 12.0184 14.6719L12.3055 15.0164L11.682 15.3855C11.3375 15.5906 10.7633 16.0336 10.4023 16.3781C8.93398 17.7809 8.20391 19.5035 8.20391 21.5707V22.4648H6.48125H4.75859V12.5391V2.61328H21.0008H37.243V12.5391ZM16.1199 10.4801C17.3832 11.0543 17.5473 12.6047 16.4316 13.3922C16.1609 13.5809 15.9641 13.6465 15.5949 13.6711C15.0043 13.7121 14.6023 13.5891 14.2168 13.2527C13.0191 12.2027 13.7902 10.3488 15.4227 10.3324C15.6277 10.3324 15.9395 10.398 16.1199 10.4801ZM16.9484 17.1984C18.9008 17.8793 20.0984 19.6184 20.0984 21.784V22.4648H15.4145H10.7305L10.7633 21.4969C10.8043 20.3566 10.9684 19.8316 11.5426 18.9867C12.4285 17.6906 13.8066 16.9852 15.4637 16.977C16.1609 16.9688 16.3824 17.0098 16.9484 17.1984ZM39.2938 25.1145C39.2938 25.3031 38.6867 26.1809 38.3668 26.4598C37.9484 26.8207 37.4398 27.1078 36.923 27.2555C36.5211 27.3703 34.8805 27.3867 21.0008 27.3867C7.12109 27.3867 5.48047 27.3703 5.07852 27.2555C4.56172 27.1078 4.05313 26.8207 3.63477 26.4598C3.31484 26.1809 2.70781 25.3031 2.70781 25.1145C2.70781 25.0242 5.73477 25.0078 21.0008 25.0078C36.2668 25.0078 39.2938 25.0242 39.2938 25.1145Z" fill="white"/>
</svg>
