<svg width="41" height="38" viewBox="0 0 41 38" fill="none" xmlns="http://www.w3.org/2000/svg">
<g clip-path="url(#clip0_99_1124)">
<path d="M4.6785 0.300457C4.60841 0.353481 4.55585 4.84278 4.55585 10.2512C4.55585 17.6567 4.60841 20.1312 4.76611 20.2902C4.9238 20.4493 4.48576 20.5023 2.76867 20.5023C0.98149 20.5023 0.490892 20.5553 0.280636 20.7851C-0.104834 21.1563 -0.0697917 21.4921 0.385764 21.8102C0.71867 22.0577 1.73491 22.093 7.91995 22.093H15.0687V21.5098C15.0687 21.1916 15.2264 20.6437 15.4016 20.2726L15.7345 19.6186H10.7584H5.78235V10.4279V1.2372H20.5003H35.2182V10.4279V19.6186H30.6452C27.0533 19.6186 26.0896 19.6716 26.1772 19.8307C26.2298 19.9544 26.405 20.52 26.5802 21.0679L26.8956 22.093H33.7464C40.8426 22.093 41.0003 22.0753 41.0003 21.3684C41.0003 20.626 40.5623 20.5023 38.1443 20.5023C36.3571 20.5023 35.9016 20.4493 36.0593 20.2902C36.217 20.1312 36.2695 17.6921 36.2695 10.4102C36.2695 5.09023 36.217 0.618597 36.1644 0.459528C36.0593 0.212086 34.5174 0.176737 20.4302 0.176737C11.8272 0.176737 4.73106 0.229759 4.6785 0.300457Z" fill="white"/>
<path d="M24.8457 3.18136C23.6718 3.53485 23.0936 4.31252 22.9184 5.74415C22.8483 6.32741 22.7432 7.10508 22.6731 7.47624C22.5504 8.21857 22.7957 8.97857 23.444 9.86229C23.6718 10.1804 23.9346 10.7283 24.0222 11.0641C24.2325 11.8241 24.9158 12.1953 26.0722 12.1953C27.0534 12.1953 27.8594 11.7004 27.8594 11.1172C27.8594 10.9228 28.1923 10.2865 28.5953 9.70322C29.2436 8.78415 29.3487 8.51903 29.3312 7.81206C29.2786 6.36275 28.9457 4.73671 28.6128 4.2595C27.8944 3.26973 26.1774 2.77485 24.8457 3.18136Z" fill="white"/>
<path d="M8.70802 5.26703C8.4452 5.54982 8.41016 6.16842 8.41016 10.2866C8.41016 14.0512 8.46272 15.0233 8.65546 15.1824C8.81315 15.3238 10.0747 15.3768 12.808 15.3414L16.7328 15.2884L16.7854 14.7935C16.8204 14.4577 16.7678 14.3163 16.5751 14.3163C16.4174 14.3163 16.2948 14.4754 16.2948 14.6698C16.2948 15.0056 16.1721 15.0233 12.808 15.0233C9.05845 15.0233 8.84819 14.9703 8.97084 14.1042L9.0234 13.6977L12.7555 13.6447L16.47 13.6094V9.27912V4.94889H12.7379C9.32127 4.94889 8.97084 4.98424 8.70802 5.26703ZM10.1273 9.40284C10.0747 12.4605 10.0396 12.9907 9.81187 12.9907C9.58409 12.9907 9.54905 12.4605 9.49648 9.40284C9.46144 5.90331 9.46144 5.83261 9.81187 5.83261C10.1623 5.83261 10.1623 5.90331 10.1273 9.40284Z" fill="white"/>
<path d="M22.5165 12.4781C22.3238 12.6195 21.6229 12.9023 20.9396 13.0967C20.2738 13.2911 19.5379 13.5386 19.3452 13.6446C18.9071 13.8567 18.5742 14.493 18.5742 15.1116V15.5535H21.4652C23.0597 15.5535 24.3563 15.4828 24.3563 15.3944C24.3563 15.253 22.9721 12.1953 22.902 12.1953C22.8845 12.1953 22.7093 12.319 22.5165 12.4781Z" fill="white"/>
<path d="M28.2106 13.733C27.8252 14.5637 27.5098 15.3237 27.5098 15.3944C27.5098 15.4828 28.8063 15.5535 30.4008 15.5535C33.6072 15.5535 33.5371 15.5888 33.1166 14.3693C32.9063 13.7684 32.5734 13.5739 31.1016 13.1674C30.5234 13.0084 29.7875 12.7256 29.4897 12.5488L28.929 12.213L28.2106 13.733Z" fill="white"/>
<path d="M25.0041 13.026C24.7763 13.2381 24.8814 13.839 25.1793 14.0511C25.4071 14.2279 25.4246 14.3516 25.2669 14.8111L25.0742 15.3767H25.8451H26.616L26.4408 14.8111C26.3182 14.3693 26.3357 14.2102 26.5459 14.0865C26.6861 14.0158 26.8088 13.7153 26.8088 13.4325C26.8088 12.92 26.7912 12.9023 25.9677 12.9023C25.4947 12.9023 25.0566 12.9553 25.0041 13.026Z" fill="white"/>
<path d="M19.1866 19.3711C17.7324 19.9014 16.9965 21.0502 16.9965 22.7646C16.9965 23.3479 16.8738 24.1255 16.7161 24.4967C16.3307 25.4511 16.5234 26.4055 17.4345 27.9255C18.0828 29.039 18.1704 29.2865 18.0127 29.6753C17.6272 30.7181 17.0666 31.0009 14.8238 31.2837C13.4572 31.4604 12.108 32.026 11.9503 32.4679C11.8978 32.6446 13.72 32.6976 20.676 32.6976C28.9986 32.6976 29.4366 32.68 29.2789 32.3795C28.8409 31.5488 28.2627 31.3367 25.5119 31.0009C24.8986 30.9302 24.5131 30.7534 24.1627 30.4C23.3918 29.64 23.3567 29.1097 23.9875 28.2967C25.1264 26.8474 25.5119 25.3451 24.9687 24.3907C24.8285 24.1255 24.7234 23.4539 24.7059 22.7469C24.7059 21.3683 24.4606 20.7851 23.5845 20.0074C22.5507 19.0883 20.676 18.8232 19.1866 19.3711Z" fill="white"/>
<path d="M9.90029 34.1823C8.77892 34.6949 8.06055 35.8791 8.06055 37.24V37.8232H20.5007H32.9409V37.24C32.9409 35.8437 32.1349 34.5711 30.961 34.1293C30.1725 33.8288 10.5836 33.8818 9.90029 34.1823Z" fill="white"/>
</g>
<defs>
<clipPath id="clip0_99_1124">
<rect width="41" height="38" fill="white"/>
</clipPath>
</defs>
</svg>
