<svg width="49" height="30" viewBox="0 0 49 30" fill="none" xmlns="http://www.w3.org/2000/svg">
<g clip-path="url(#clip0_99_1075)">
<path d="M29.8476 0.152542C29.729 0.237288 29.5764 0.694916 29.5256 1.16949L29.4408 2.0339H22.373C14.7798 2.0339 14.729 2.0339 15.0002 2.86441C15.1019 3.22034 15.1697 3.22034 29.8815 3.25424L44.6612 3.30508L44.712 12.7458L44.7459 22.2034H29.9493C18.6612 22.2034 15.1019 22.2542 14.9493 22.4068C14.6442 22.7119 14.712 23.1864 15.068 23.3898C15.2883 23.4915 17.8815 23.5593 22.3561 23.5593C28.8815 23.5593 29.3222 23.5763 29.3053 23.8475C29.3053 24.0169 28.3053 25.0678 27.1019 26.1864C25.3222 27.8475 24.9324 28.3051 24.9663 28.6441C24.9832 28.9492 25.1188 29.0847 25.39 29.1186C25.6781 29.1695 26.2036 28.7797 27.5595 27.5424L29.3222 25.8983V27.7458C29.3222 29.5763 29.4408 30 29.9324 30C30.5086 30 30.6781 29.4915 30.6781 27.7627V26.0678L32.3222 27.6102C34.051 29.2203 34.6103 29.4746 34.8476 28.7797C34.9493 28.4576 34.6273 28.0847 32.8137 26.3051C31.6273 25.1525 30.6273 24.0508 30.5934 23.8814C30.5256 23.5763 30.7968 23.5593 39.068 23.5593C43.7629 23.5593 47.712 23.5085 47.8646 23.4576C48.2205 23.322 48.2205 22.4407 47.8646 22.3051C47.712 22.2542 47.2205 22.2034 46.7629 22.2034H45.9324L45.9663 12.7458L46.0171 3.30508L47.0341 3.22034C47.8307 3.15254 48.068 3.0678 48.1019 2.83051C48.2544 2.0339 48.3053 2.0339 39.3053 2.0339H30.8476V1.22034C30.8476 0.169491 30.4747 -0.237288 29.8476 0.152542Z" fill="white"/>
<path d="M7.11875 0.69498C5.52553 1.40684 4.71197 2.66108 4.71197 4.33905C4.69502 7.86447 8.77976 9.67803 11.3899 7.3221C12.2882 6.50854 12.712 5.59329 12.712 4.40684C12.712 1.47464 9.74586 -0.491461 7.11875 0.69498Z" fill="white"/>
<path d="M20.8822 6.25422C20.7466 6.32201 20.6788 6.57625 20.7127 6.79659L20.7636 7.20337H31.1704C40.6958 7.20337 41.5941 7.18642 41.7466 6.91523C41.8822 6.71184 41.8653 6.5593 41.7127 6.37286C41.5094 6.13557 40.3907 6.10167 31.289 6.10167C25.6958 6.10167 21.0009 6.16947 20.8822 6.25422Z" fill="white"/>
<path d="M6.52585 9.08475C4.81399 9.44068 4.35636 9.61017 3.6784 10.1017C3.23772 10.4237 2.6106 11.0339 2.28857 11.4915C1.05128 13.1864 0.169922 16.7966 0.169922 20.2373C0.169922 21.7627 0.20382 21.9153 0.593651 22.2881C1.33941 23.0509 2.98348 22.7288 3.35636 21.7458C3.45806 21.4915 3.62755 20.1186 3.72924 18.7288C3.91568 16.1186 4.10213 15.0678 4.49196 14.5254C4.6784 14.2712 4.72924 14.8814 4.83094 18.2203C4.89874 20.4068 4.91568 22.5085 4.84789 22.8814L4.74619 23.5593H8.6784H12.6275L12.5767 20.8136C12.5598 19.2881 12.5937 17.4576 12.6614 16.7288L12.797 15.4068L13.6953 16.6102C14.1869 17.2712 14.7631 17.8814 14.9665 17.9661C15.1699 18.0509 16.5428 18.3559 18.0174 18.6441C20.4411 19.1017 20.7292 19.1356 21.2547 18.9153C22.2547 18.4915 22.7631 17.339 22.3225 16.4576L22.0682 15.9322L24.3394 13.5763C25.5937 12.2712 26.6106 11.1525 26.6106 11.1017C26.6106 11.0339 26.5259 10.8475 26.4411 10.661C26.0513 9.94916 25.5767 10.2542 23.136 12.8136L20.7631 15.2881L18.814 14.8983L16.8818 14.4915L15.2208 12.2034C13.1191 9.32204 12.9835 9.23729 9.32246 9.1017C7.96653 9.05085 6.71229 9.05085 6.52585 9.08475Z" fill="white"/>
<path d="M26.9325 10.4407C26.7799 10.6272 26.763 10.7797 26.8986 10.9831C27.0511 11.2373 27.746 11.2712 34.3223 11.2712C40.8986 11.2712 41.5935 11.2373 41.746 10.9831C41.8816 10.7797 41.8647 10.6272 41.7121 10.4407C41.5088 10.2034 40.6443 10.1695 34.3223 10.1695C28.0003 10.1695 27.1359 10.2034 26.9325 10.4407Z" fill="white"/>
<path d="M28.8647 14.5084C28.8138 14.661 28.8308 14.9152 28.9325 15.0678C29.085 15.305 29.8138 15.3389 35.2884 15.3898C41.9325 15.4237 42.0511 15.4237 41.7799 14.5762C41.6782 14.2372 41.5765 14.2372 35.3223 14.2372C29.5935 14.2372 28.9664 14.2711 28.8647 14.5084Z" fill="white"/>
<path d="M28.0002 18.5085C27.7291 18.7797 27.746 18.8984 28.068 19.2204C28.2884 19.4577 29.1528 19.4916 34.8138 19.4916C41.6613 19.4916 41.9833 19.4577 41.8308 18.7119C41.7799 18.4068 41.5426 18.3899 34.9833 18.339C29.8646 18.3051 28.1528 18.356 28.0002 18.5085Z" fill="white"/>
</g>
<defs>
<clipPath id="clip0_99_1075">
<rect width="48.3051" height="30" fill="white"/>
</clipPath>
</defs>
</svg>
