<svg width="40" height="30" viewBox="0 0 40 30" fill="none" xmlns="http://www.w3.org/2000/svg">
<path d="M0.965391 1.5338L0.0878906 2.2088V15V27.7913L0.965391 28.4663C1.84289 29.175 2.18039 29.175 20.0004 29.175C37.8204 29.175 38.1579 29.175 39.0354 28.4663L39.9129 27.7913V15V2.2088L39.0354 1.5338C38.1579 0.825048 37.8204 0.825048 20.0004 0.825048C2.18039 0.825048 1.84289 0.825048 0.965391 1.5338ZM38.5966 2.58005C38.9679 3.1538 38.9679 26.8463 38.5966 27.42C38.1916 28.0613 1.80914 28.0613 1.37039 27.42C1.03289 26.88 1.03289 3.1538 1.37039 2.6138C1.74164 2.04005 3.39539 2.0063 21.8229 2.0738C35.0866 2.10755 38.3941 2.2088 38.5966 2.58005Z" fill="white"/>
<path d="M13.6562 5.2126C13.6562 5.85385 13.7238 6.12385 13.825 5.78635C13.8925 5.4826 13.8925 4.9426 13.825 4.6051C13.7238 4.30135 13.6562 4.57135 13.6562 5.2126Z" fill="white"/>
<path d="M9.20117 5.41508C9.20117 5.58383 9.43742 6.05633 9.70742 6.42758C9.97742 6.76508 10.2137 6.90008 10.2137 6.69758C10.2137 6.52883 9.97742 6.05633 9.70742 5.68508C9.43742 5.34758 9.20117 5.21258 9.20117 5.41508Z" fill="white"/>
<path d="M17.7068 6.05627C17.5043 6.52877 17.4705 6.90002 17.6393 6.90002C17.943 6.90002 18.483 5.58377 18.2468 5.34752C18.1455 5.28002 17.9093 5.58377 17.7068 6.05627Z" fill="white"/>
<path d="M32.4883 6.36002C32.4883 6.66377 32.7245 6.90002 33.0283 6.90002C33.602 6.90002 33.5008 6.15752 32.8933 5.95502C32.657 5.88752 32.4883 6.05627 32.4883 6.36002Z" fill="white"/>
<path d="M26.4121 6.56252C26.4121 6.76502 27.4246 6.90002 28.7409 6.90002C30.0571 6.90002 31.2046 6.73127 31.3059 6.56252C31.4409 6.36002 30.5634 6.22502 28.9771 6.22502C27.4921 6.22502 26.4121 6.36002 26.4121 6.56252Z" fill="white"/>
<path d="M11.4279 7.10251C10.6854 7.37251 9.57166 7.98001 8.93041 8.45251C6.90541 10.005 5.42041 14.46 6.73666 14.9325C6.97291 15 7.24291 14.865 7.31041 14.595C7.37791 14.3588 7.61416 13.515 7.81666 12.7388C8.62666 9.73501 10.7867 8.18251 14.0942 8.21626C16.5579 8.21626 17.3342 7.54126 15.5454 6.93375C14.1954 6.46126 13.0479 6.49501 11.4279 7.10251Z" fill="white"/>
<path d="M14.8376 10.8488C13.4538 12.5363 12.6101 13.8863 12.7113 14.1901C12.9813 14.9326 13.9263 15.1688 14.4326 14.6288C14.8713 14.1901 17.4026 8.21632 17.2001 8.04757C17.1663 8.01382 16.0863 9.26257 14.8376 10.8488Z" fill="white"/>
<path d="M26.4121 8.25002C26.4121 8.45252 27.4921 8.58752 28.9771 8.58752C30.5634 8.58752 31.4409 8.45252 31.3059 8.25002C31.2046 8.04752 30.0571 7.91252 28.7409 7.91252C27.4246 7.91252 26.4121 8.04752 26.4121 8.25002Z" fill="white"/>
<path d="M32.556 8.28384C32.6235 8.48634 32.826 8.62134 32.9947 8.62134C33.1635 8.62134 33.366 8.48634 33.4335 8.28384C33.501 8.08134 33.2985 7.91259 32.9947 7.91259C32.691 7.91259 32.4885 8.08134 32.556 8.28384Z" fill="white"/>
<path d="M6.16202 8.92499C6.63452 9.26249 7.07327 9.46499 7.17452 9.36374C7.37702 9.16124 6.16202 8.24999 5.68952 8.24999C5.48702 8.24999 5.68952 8.55374 6.16202 8.92499Z" fill="white"/>
<path d="M17.8412 8.79008C17.7062 9.09383 17.9762 9.73508 18.4825 10.3088C18.9212 10.8826 19.495 11.9626 19.6975 12.7388C19.9 13.5151 20.1362 14.3588 20.2037 14.5951C20.4062 15.3038 21.1825 14.8651 21.2837 13.9876C21.4862 12.7051 20.7437 10.7138 19.63 9.43133C18.4487 8.11508 18.145 8.01383 17.8412 8.79008Z" fill="white"/>
<path d="M20.8774 8.75624C20.5062 9.02624 20.2699 9.32999 20.3712 9.39749C20.4387 9.49874 20.8774 9.26249 21.3499 8.92499C21.8224 8.55374 22.0587 8.24999 21.8562 8.28374C21.6874 8.28374 21.2149 8.48624 20.8774 8.75624Z" fill="white"/>
<path d="M3.96907 12.6376C4.07032 12.8063 4.50907 12.9751 4.91407 12.9413C5.62282 12.9413 5.62282 12.9076 4.98157 12.6376C4.03657 12.2326 3.73282 12.2326 3.96907 12.6376Z" fill="white"/>
<path d="M22.5314 12.6376C21.8902 12.9076 21.8902 12.9413 22.5989 12.9413C23.0039 12.9751 23.4427 12.8063 23.5439 12.6376C23.7802 12.2326 23.4764 12.2326 22.5314 12.6376Z" fill="white"/>
<path d="M32.4875 19.725C32.4875 23.2013 32.4538 23.4375 31.8125 23.4375C31.205 23.4375 31.1375 23.2013 31.1375 21.075V18.7125H29.9563H28.8088L28.7075 20.9738C28.6063 22.9988 28.5388 23.2688 27.9313 23.2688C27.3238 23.2688 27.2563 22.9988 27.155 20.2988L27.0538 17.3625H25.9062H24.725V20.4C24.725 23.2013 24.6913 23.4375 24.05 23.4375C23.4425 23.4375 23.375 23.2013 23.375 21.4125V19.3875H22.025H20.675V21.4125C20.675 22.5263 20.54 23.4375 20.3375 23.4375C20.1688 23.4375 20 23.5725 20 23.775C20 23.9775 22.8688 24.1125 27.9313 24.1125C32.9938 24.1125 35.8625 23.9775 35.8625 23.775C35.8625 23.5725 35.7275 23.4375 35.525 23.4375C35.3225 23.4375 35.1875 21.9863 35.1875 19.725V16.0125H33.8375H32.4875V19.725Z" fill="white"/>
<path d="M4.30754 19.05C4.57754 19.5225 15.2763 19.5225 15.2763 19.05C15.2763 18.8475 13.1838 18.7125 9.67379 18.7125C6.06254 18.7125 4.17254 18.8138 4.30754 19.05Z" fill="white"/>
<path d="M4.30754 21.4126C4.57754 21.8851 15.2763 21.8851 15.2763 21.4126C15.2763 21.2101 13.1838 21.0751 9.67379 21.0751C6.06254 21.0751 4.17254 21.1763 4.30754 21.4126Z" fill="white"/>
<path d="M4.30667 23.4376C4.20542 23.6063 4.30667 23.8426 4.54292 23.9438C5.38667 24.2813 14.9379 23.9438 15.0392 23.6063C15.1404 23.1338 4.61042 22.9651 4.30667 23.4376Z" fill="white"/>
</svg>
