<svg width="40" height="40" viewBox="0 0 40 40" fill="none" xmlns="http://www.w3.org/2000/svg">
<path d="M17.539 1.0625C15.9452 1.27344 14.3124 1.70312 14.0624 1.96875C13.7343 2.32031 13.7733 2.58594 14.2655 3.48438C14.8202 4.48438 15.0858 4.8125 15.3593 4.86719C15.4765 4.89062 15.914 4.82812 16.3202 4.72656C17.7812 4.375 18.1796 4.33594 20.039 4.33594C21.4452 4.33594 22.0077 4.36719 22.6171 4.48438C24.6796 4.85938 26.664 5.64844 28.3983 6.78125C31.8749 9.03906 34.2499 12.5547 35.1171 16.7188C35.3749 17.9297 35.4608 20.125 35.3202 21.4062C35.0468 23.7656 34.1562 26.2109 32.8515 28.1797L32.3202 28.9688L31.8827 28.7109C31.2733 28.3594 31.1483 28.3281 30.9296 28.5L30.7499 28.6484L31.1171 31.1797C31.4921 33.7578 31.5312 33.9062 31.8515 33.9062C31.9843 33.9062 36.2421 32.2031 36.4687 32.0625C36.5858 31.9844 36.6405 31.875 36.6405 31.7188C36.6405 31.4688 36.4452 31.3047 35.6093 30.8594L35.2577 30.6719L35.7421 29.9297C37.1093 27.8438 38.0702 25.4062 38.5233 22.8516C38.6874 21.9453 38.7108 21.6016 38.7108 19.6875C38.703 17.3594 38.6562 16.8984 38.203 15.0781C37.3749 11.7734 35.703 8.82031 33.2812 6.40625C30.328 3.45312 26.5468 1.60156 22.3983 1.05469C21.2577 0.90625 18.6405 0.914062 17.539 1.0625Z" fill="white"/>
<path d="M5.66473 6.39843L3.3991 7.3125L3.37566 7.60156C3.35223 7.86718 3.37566 7.90625 3.69598 8.10937C3.88348 8.22656 4.19598 8.40625 4.39129 8.51562L4.74285 8.70312L4.37566 9.25C2.74285 11.7031 1.75066 14.3594 1.36004 17.3437C1.18816 18.6719 1.25066 21.6094 1.47723 22.8125C1.68816 23.9531 1.84441 24.6016 2.11785 25.4453C4.03973 31.4297 8.78973 36.0156 14.9147 37.7734C16.3522 38.1875 17.2663 38.3359 17.571 38.2031C18.0085 38.0234 18.0632 37.8047 17.9772 36.5312C17.9382 35.9141 17.8679 35.3359 17.821 35.2422C17.696 35.0156 17.5632 34.9609 16.7194 34.7578C13.8444 34.0859 11.3522 32.7344 9.26629 30.7109C6.89129 28.3984 5.43035 25.625 4.79754 22.25C4.62566 21.3594 4.56316 18.8828 4.68035 17.9141C4.97723 15.5312 5.85223 13.1562 7.1491 11.2031L7.68035 10.4062L8.12566 10.6719C8.66473 10.9844 9.03191 11.0234 9.14129 10.7578C9.20379 10.6328 9.13348 9.94531 8.86785 8.125C8.50066 5.53906 8.47723 5.46093 8.09441 5.47656C8.00066 5.47656 6.91473 5.89062 5.66473 6.39843Z" fill="white"/>
<path d="M18.1957 7.69529C16.8988 7.90622 15.68 8.28122 14.7035 8.78122C14.3597 8.9531 14.3519 8.96872 14.516 9.05466C14.8597 9.24216 15.4144 9.23435 16.4769 9.03122C18.1019 8.71872 18.5707 8.7656 19.2894 9.30466C19.8519 9.72654 20.0785 9.8281 20.7582 9.96091C21.8285 10.164 22.1879 10.5625 22.1879 11.539C22.1879 12.7656 21.8988 13.6093 21.391 13.8515C21.2504 13.9218 20.7269 14.0781 20.2347 14.1953C19.6254 14.3437 19.0863 14.539 18.555 14.8047C17.6957 15.2343 17.516 15.4297 17.305 16.1328C17.2191 16.4453 17.1019 16.6172 16.8754 16.8203C16.5238 17.125 16.2738 17.2031 15.2347 17.3828C14.8285 17.4531 14.4769 17.5234 14.4613 17.5468C14.4066 17.6015 14.6019 17.9687 15.0472 18.6562L15.4769 19.3203L16.2347 19.25C17.2738 19.164 17.516 19.1797 18.3207 19.414C20.4379 20.0312 22.0629 20.9765 22.5472 21.8828C22.8207 22.3906 22.6644 23.5781 22.2113 24.4687C22.055 24.7968 22.1879 24.7343 22.6175 24.289C23.43 23.4609 25.0394 22.539 26.5082 22.0625C27.1957 21.8437 27.1957 21.8359 27.0316 21.7031C26.9144 21.6093 26.7269 21.5625 26.4535 21.5625C25.7504 21.5625 24.7347 21.4062 24.3988 21.2422C23.9457 21.0234 23.1566 20.2422 22.9691 19.8359C22.6566 19.1328 22.7894 18.5468 23.5238 17.3828C23.8129 16.9218 23.8597 16.7968 23.8441 16.4687C23.8207 15.8672 24.2425 15.2343 24.8441 14.9609C25.1254 14.8359 25.2191 14.8281 25.6097 14.9062C26.2738 15.0468 27.4457 15.1562 28.2582 15.1562C28.9535 15.1562 28.9847 15.1484 29.0316 14.9687C29.055 14.8672 29.0629 14.6953 29.0472 14.6015C29.0238 14.414 29.016 14.414 28.2425 14.4531C26.641 14.5312 25.6019 14.5 25.3363 14.3515C25.0082 14.1797 24.8363 13.6172 24.8285 12.6953C24.8207 12.1328 24.8519 11.9765 25.0316 11.6093C25.3441 10.9687 25.8441 10.5937 26.8988 10.1953C27.1019 10.1172 27.266 10.0312 27.266 9.99997C27.266 9.89841 26.2035 9.23435 25.391 8.8281C24.4535 8.35935 23.4613 8.0156 22.43 7.80466C21.43 7.59372 19.1488 7.53904 18.1957 7.69529Z" fill="white"/>
<path d="M12.3984 10.2344C11.1953 11.2032 9.92969 12.7344 9.28906 14L9.05469 14.461L9.40625 15.211C10.1016 16.6641 10.8906 17.5235 12.5391 18.6094C13.1016 18.9844 13.6562 19.4141 13.7734 19.5704C14.0781 19.9532 14.3516 20.586 14.4141 21.0391C14.4609 21.3282 14.5078 21.4141 14.6406 21.4454C14.7266 21.4688 14.9688 21.5157 15.1719 21.5625C16.3438 21.8125 17.7031 22.4688 18.6953 23.2579C19.1484 23.625 19.9531 24.5313 20.2344 24.9844C20.3047 25.1016 20.3438 25.086 20.5938 24.8047C21.1562 24.1719 21.6641 22.875 21.5234 22.4297C21.3438 21.8594 19.5938 20.9219 17.9297 20.5079C17.3672 20.3672 17.1328 20.3438 16.7578 20.3907C15.2656 20.586 14.8828 20.4454 14.1953 19.4454C13.3438 18.2032 13.1328 17.5469 13.3984 17.0313C13.625 16.6016 14.0312 16.4141 15.1875 16.211C15.5625 16.1407 15.9375 16.0547 16.0156 16.0157C16.0938 15.9688 16.2188 15.75 16.2812 15.5235C16.4375 14.9922 16.7656 14.5313 17.2266 14.2188C17.8438 13.7969 18.8594 13.3594 19.8516 13.1094C20.4609 12.9454 20.8125 12.8204 20.8594 12.7344C20.9453 12.5704 21.0938 11.4219 21.0469 11.2891C21.0234 11.2344 20.7266 11.1407 20.3906 11.0704C19.7422 10.9375 19.2422 10.711 18.6953 10.3047C18.2422 9.96098 17.8516 9.93754 16.5781 10.1875C16.0156 10.2969 15.4062 10.3907 15.2344 10.3907C14.9922 10.3907 13.7344 10.0391 13.0781 9.7891C13.0312 9.77348 12.7266 9.96879 12.3984 10.2344Z" fill="white"/>
<path d="M27.5016 11.2031C26.3298 11.6484 26.0719 11.8516 25.986 12.4062C25.9391 12.6797 26.0407 13.5703 26.1266 13.6562C26.1501 13.6719 26.5641 13.5938 27.0407 13.4766C28.111 13.2109 29.1188 13.1719 29.5094 13.3828C30.2048 13.7578 30.4313 14.6328 30.0407 15.4297C29.9313 15.6641 29.7126 15.9531 29.5641 16.0625C29.3298 16.2422 29.1969 16.2734 28.5719 16.3125C27.8063 16.3516 26.0954 16.2188 25.6032 16.0859C25.3454 16.0156 25.2751 16.0312 25.1423 16.1406C25.0407 16.2344 25.0094 16.3438 25.0407 16.4609C25.111 16.75 24.9391 17.25 24.5641 17.875C24.3688 18.1953 24.1735 18.6016 24.1266 18.7812C24.0485 19.0781 24.0563 19.1562 24.2126 19.4766C24.5407 20.1562 25.1188 20.3906 26.486 20.3906C27.4938 20.3906 28.0563 20.6484 28.361 21.2422L28.5094 21.5391L29.0798 21.4375C29.3923 21.3828 30.1813 21.2969 30.8376 21.2422L32.0251 21.1406L32.0798 20.7109C32.1657 20 32.0563 18.0781 31.8766 17.2266C31.5485 15.6875 30.9313 14.2266 30.0407 12.8828C29.4704 12.0312 28.486 10.9375 28.2985 10.9453C28.2204 10.9453 27.8688 11.0625 27.5016 11.2031Z" fill="white"/>
<path d="M8.32812 16.3985C8.02344 17.4297 7.9375 18.1406 7.92969 19.6485C7.92969 20.461 7.96094 21.2656 7.99219 21.4297C8.04688 21.7031 8.07812 21.7266 8.24219 21.6875C9.13281 21.461 10.4453 21.3125 11.7734 21.2735L13.2812 21.2266L13.2344 21.0235C13.1562 20.6797 12.8359 20.1953 12.5625 19.9922C12.4219 19.8828 11.9922 19.6094 11.6094 19.375C10.4531 18.6641 9.39062 17.5391 8.54688 16.125C8.46875 15.9922 8.4375 16.0313 8.32812 16.3985Z" fill="white"/>
<path d="M30.9779 22.3984C28.8139 22.5703 26.7123 23.0859 25.3607 23.7656C23.7982 24.5547 22.5717 25.7656 21.9467 27.1641C21.5404 28.0469 21.3842 28.8828 21.3764 30.1719C21.3685 30.8047 21.3529 31.2969 21.3217 31.2656C20.681 30.4609 20.6264 30.3438 20.5482 29.6406C20.0717 25.3828 17.8217 23 13.7826 22.4922C12.3295 22.3125 9.75136 22.5 8.0873 22.9141C7.50136 23.0547 7.51698 23.25 8.14198 23.5703C9.18105 24.1094 9.90761 24.8594 11.4857 27.0312C13.0482 29.1797 13.7357 29.9219 14.8295 30.6328C15.7357 31.2266 16.6654 31.5312 17.8685 31.6094C18.267 31.6406 18.5951 31.6406 18.5951 31.6016C18.5951 31.4531 18.0795 30.6016 17.6185 29.9922C16.806 28.9062 15.7357 27.9922 14.5014 27.3203C14.0404 27.0781 13.9935 27.0312 14.2201 27.0703C16.3217 27.4531 18.1732 28.7578 19.3529 30.7031C19.5482 31.0234 19.8764 31.5312 20.0795 31.8359C21.2357 33.5469 21.8685 35.3047 22.1498 37.5781C22.306 38.875 22.392 39.0234 22.931 39.0234C23.2435 39.0234 23.3295 38.9922 23.4623 38.8125C23.6107 38.6172 23.6107 38.5625 23.5248 37.7578C23.392 36.5938 23.1732 35.5156 22.8451 34.4531C22.5795 33.625 22.5639 33.5 22.6107 32.8906C22.7045 31.4844 23.267 29.9375 24.0482 28.9062C24.431 28.3906 25.6576 27.1875 25.7904 27.1875C25.8295 27.1875 25.7357 27.3516 25.5873 27.5469C24.4545 29.0234 23.6732 31.3359 23.6732 33.1875V33.5312L23.931 33.4766C24.4389 33.3672 25.1342 33.1094 25.6264 32.8359C27.306 31.9219 28.267 30.5547 29.4935 27.3438C30.4389 24.875 31.017 23.8203 31.8685 23.0234C32.0873 22.8203 32.267 22.5781 32.267 22.5C32.267 22.3594 32.2123 22.3438 31.7826 22.3594C31.5092 22.3672 31.1498 22.3828 30.9779 22.3984Z" fill="white"/>
</svg>
