<svg width="40" height="38" viewBox="0 0 40 38" fill="none" xmlns="http://www.w3.org/2000/svg">
<path d="M14.3864 1.34373C7.85512 2.90623 2.10512 8.90623 0.85512 15.5C0.35512 18.125 0.63637 22.4375 1.48012 24.75C4.10512 32.1875 11.5426 37.5 18.6989 37.0625C20.0426 37 20.4489 36.8437 20.5114 36.4062C20.6051 35.9687 20.3864 35.875 19.1051 35.875C8.44887 35.8437 0.13637 25.9375 2.26137 15.875C4.19887 6.71873 13.0114 0.718727 21.8239 2.56248C28.1051 3.87498 32.7926 8.09373 34.7926 14.2812C35.3864 16.1562 35.5426 19.7187 35.1364 22.6875C34.8864 24.5312 34.9176 24.6875 35.4489 24.5625C36.2301 24.4375 36.7614 22.3125 36.7926 19.25C36.8239 16.0312 36.3864 14.0312 34.9176 10.9687C32.6364 6.18748 27.6364 2.28123 22.5114 1.21873C20.3551 0.781227 16.4801 0.812477 14.3864 1.34373Z" fill="white"/>
<path d="M11.5116 13.8438C10.6991 14.8438 11.9179 16.375 13.0116 15.6875C14.0741 15 13.6991 13.375 12.4491 13.375C12.1366 13.375 11.7304 13.5938 11.5116 13.8438Z" fill="white"/>
<path d="M24.0116 13.8438C23.1991 14.8438 24.4179 16.375 25.5116 15.6875C26.5741 15 26.1991 13.375 24.9491 13.375C24.6366 13.375 24.2304 13.5938 24.0116 13.8438Z" fill="white"/>
<path d="M30.2617 20.25C29.918 20.5938 29.6367 21.1562 29.6367 21.5C29.6367 21.8438 29.3555 22.8438 29.043 23.7188C28.1367 26.0625 26.8242 27.3438 26.8242 25.875C26.8242 25.3125 26.6055 25.25 24.3242 25.25H21.8242V31.1875V37.125H24.3242C26.6055 37.125 26.8242 37.0625 26.8242 36.5C26.8242 36.1562 26.8867 35.875 26.9805 35.875C27.0742 35.875 27.6992 36.1562 28.3867 36.5C29.4492 37.0312 30.2305 37.125 33.9492 37.125C37.6992 37.125 38.3555 37.0625 38.7617 36.5625C39.168 36.125 39.2617 35.1562 39.2617 31.5C39.2617 25.875 39.2617 25.875 35.918 25.875H33.543L33.6367 23.4062C33.7305 21.2188 33.668 20.8438 33.1055 20.2812C32.2617 19.4375 31.0742 19.4375 30.2617 20.25ZM32.293 23.3125C32.2617 24.2812 32.1367 25.5312 32.0117 26.0938L31.7617 27.0938L34.8242 27.1875C37.0117 27.25 37.918 27.4062 38.0117 27.6875C38.0742 27.9062 37.8555 28.1875 37.4805 28.2812C36.6367 28.5 36.6367 29.5 37.4492 29.7188C37.793 29.8125 38.0742 30.0312 38.0742 30.25C38.0742 30.4688 37.793 30.6875 37.4492 30.7812C37.1055 30.875 36.8242 31.1875 36.8242 31.5C36.8242 31.8125 37.1055 32.125 37.4492 32.2188C37.793 32.3125 38.0742 32.5312 38.0742 32.75C38.0742 32.9688 37.793 33.1875 37.4492 33.2812C36.6367 33.5 36.6367 34.5 37.4805 34.7188C37.8555 34.8125 38.0742 35.0938 38.0117 35.3125C37.918 35.625 36.8555 35.75 34.0742 35.8125C30.7617 35.875 30.1055 35.8125 29.043 35.25C28.3555 34.9062 27.5742 34.625 27.293 34.625C26.8867 34.625 26.8242 34.0625 26.8242 31.1875C26.8242 28 26.8555 27.75 27.418 27.75C28.3555 27.75 29.8867 25.625 30.5742 23.4375C31.3555 20.9375 31.4805 20.7188 31.9492 21.1875C32.1367 21.375 32.293 22.3438 32.293 23.3125ZM25.5742 31.1875V35.875H24.3242H23.0742V31.1875V26.5H24.3242H25.5742V31.1875Z" fill="white"/>
<path d="M10.0111 22.1875C10.0736 22.7188 10.6986 23.1875 12.2611 24C14.4173 25.0938 14.4173 25.0938 18.6986 25.0938C22.9798 25.0938 22.9798 25.0938 25.1361 24C26.6986 23.1875 27.3236 22.7188 27.3861 22.1875C27.5111 21.25 26.8548 21.2813 25.3861 22.2813C23.6986 23.4375 22.0111 23.8125 18.6986 23.8125C15.3861 23.8125 13.6986 23.4375 12.0111 22.2813C10.5423 21.2813 9.88608 21.25 10.0111 22.1875Z" fill="white"/>
</svg>
