<svg width="17" height="17" viewBox="0 0 17 17" fill="none" xmlns="http://www.w3.org/2000/svg">
<path d="M8.51738 4.64746C10.7322 4.64746 12.5604 6.47559 12.5604 8.69043C12.5604 10.9404 10.7322 12.7334 8.51738 12.7334C6.26738 12.7334 4.47441 10.9404 4.47441 8.69043C4.47441 6.47559 6.26738 4.64746 8.51738 4.64746ZM8.51738 11.3271C9.95879 11.3271 11.1189 10.167 11.1189 8.69043C11.1189 7.24902 9.95879 6.08887 8.51738 6.08887C7.04082 6.08887 5.88066 7.24902 5.88066 8.69043C5.88066 10.167 7.07598 11.3271 8.51738 11.3271ZM13.6502 4.50684C13.6502 5.03418 13.2283 5.45605 12.701 5.45605C12.1736 5.45605 11.7518 5.03418 11.7518 4.50684C11.7518 3.97949 12.1736 3.55762 12.701 3.55762C13.2283 3.55762 13.6502 3.97949 13.6502 4.50684ZM16.3221 5.45605C16.3924 6.75684 16.3924 10.6592 16.3221 11.96C16.2518 13.2256 15.9705 14.3154 15.0564 15.2646C14.1424 16.1787 13.0174 16.46 11.7518 16.5303C10.451 16.6006 6.54863 16.6006 5.24785 16.5303C3.98223 16.46 2.89238 16.1787 1.94316 15.2646C1.0291 14.3154 0.747851 13.2256 0.677539 11.96C0.607226 10.6592 0.607226 6.75684 0.677539 5.45605C0.747851 4.19043 1.0291 3.06543 1.94316 2.15137C2.89238 1.2373 3.98223 0.956055 5.24785 0.885742C6.54863 0.81543 10.451 0.81543 11.7518 0.885742C13.0174 0.956055 14.1424 1.2373 15.0564 2.15137C15.9705 3.06543 16.2518 4.19043 16.3221 5.45605ZM14.6346 13.3311C15.0564 12.3115 14.951 9.85059 14.951 8.69043C14.951 7.56543 15.0564 5.10449 14.6346 4.0498C14.3533 3.38184 13.826 2.81934 13.158 2.57324C12.1033 2.15137 9.64238 2.25684 8.51738 2.25684C7.35723 2.25684 4.89629 2.15137 3.87676 2.57324C3.17363 2.85449 2.64629 3.38184 2.36504 4.0498C1.94316 5.10449 2.04863 7.56543 2.04863 8.69043C2.04863 9.85059 1.94316 12.3115 2.36504 13.3311C2.64629 14.0342 3.17363 14.5615 3.87676 14.8428C4.89629 15.2646 7.35723 15.1592 8.51738 15.1592C9.64238 15.1592 12.1033 15.2646 13.158 14.8428C13.826 14.5615 14.3885 14.0342 14.6346 13.3311Z" fill="white"/>
</svg>
