<svg width="19" height="15" viewBox="0 0 19 15" fill="none" xmlns="http://www.w3.org/2000/svg">
<path d="M16.6199 4.03418C16.6199 4.20996 16.6199 4.35059 16.6199 4.52637C16.6199 9.41309 12.9285 15.0029 6.14336 15.0029C4.03399 15.0029 2.10039 14.4053 0.483204 13.3506C0.764454 13.3857 1.0457 13.4209 1.36211 13.4209C3.08477 13.4209 4.6668 12.8232 5.93242 11.8389C4.31524 11.8037 2.94414 10.749 2.48711 9.27246C2.7332 9.30762 2.94414 9.34277 3.19024 9.34277C3.50664 9.34277 3.8582 9.27246 4.13945 9.20215C2.45195 8.85059 1.18633 7.37402 1.18633 5.58105V5.5459C1.67852 5.82715 2.27617 5.96777 2.87383 6.00293C1.8543 5.33496 1.22149 4.20996 1.22149 2.94434C1.22149 2.24121 1.39727 1.6084 1.71367 1.08105C3.5418 3.2959 6.28399 4.77246 9.34258 4.94824C9.27227 4.66699 9.23711 4.38574 9.23711 4.10449C9.23711 2.06543 10.8895 0.413086 12.9285 0.413086C13.9832 0.413086 14.9324 0.834961 15.6355 1.57324C16.4441 1.39746 17.2527 1.08105 17.9559 0.65918C17.6746 1.53809 17.1121 2.24121 16.3387 2.69824C17.077 2.62793 17.8152 2.41699 18.448 2.13574C17.9559 2.87402 17.323 3.50684 16.6199 4.03418Z" fill="white"/>
</svg>
