<svg width="14" height="15" viewBox="0 0 14 15" fill="none" xmlns="http://www.w3.org/2000/svg">
<path d="M4.14009 3.51643H3.14484C2.57257 3.51643 2.10866 3.98034 2.10866 4.55261V5.85488H12.6547V4.55261C12.6547 3.98034 12.1908 3.51643 11.6185 3.51643H10.6233V3.85671C10.6233 4.20007 10.3449 4.47842 10.0016 4.47842C9.6582 4.47842 9.37985 4.20007 9.37985 3.85671V3.51643H5.38351V3.85671C5.38351 4.20007 5.10516 4.47842 4.7618 4.47842C4.41844 4.47842 4.14009 4.20007 4.14009 3.85671V3.51643ZM5.38351 2.27301H9.37985V1.23682C9.37985 0.893462 9.6582 0.615112 10.0016 0.615112C10.3449 0.615112 10.6233 0.893462 10.6233 1.23682V2.27301H11.6185C12.8775 2.27301 13.8981 3.29362 13.8981 4.55261V12.1973C13.8981 13.4563 12.8775 14.477 11.6185 14.477H3.14484C1.88585 14.477 0.865234 13.4563 0.865234 12.1973V4.55261C0.865234 3.29362 1.88585 2.27301 3.14484 2.27301H4.14009V1.23682C4.14009 0.893462 4.41844 0.615112 4.7618 0.615112C5.10516 0.615112 5.38351 0.893462 5.38351 1.23682V2.27301ZM2.10866 7.0983V12.1973C2.10866 12.7696 2.57257 13.2335 3.14484 13.2335H11.6185C12.1908 13.2335 12.6547 12.7696 12.6547 12.1973V7.0983H2.10866Z" fill="#00AFEF"/>
</svg>
