<svg width="14" height="14" viewBox="0 0 14 14" fill="none" xmlns="http://www.w3.org/2000/svg">
<path d="M7.39715 10.2437C7.51215 10.1487 7.65665 10.0968 7.8058 10.0968H11.5428C12.1336 10.0968 12.6124 9.61789 12.6124 9.02716V3.03734C12.6124 2.44662 12.1336 1.96774 11.5428 1.96774H2.98595C2.39522 1.96774 1.91634 2.44662 1.91634 3.03734V9.02716C1.91634 9.61789 2.39522 10.0968 2.98595 10.0968H4.69733C5.05177 10.0968 5.33909 10.3841 5.33909 10.7385V11.9433L7.39715 10.2437ZM2.98595 11.3803C1.68635 11.3803 0.632812 10.3268 0.632812 9.02716V3.03734C0.632812 1.73774 1.68635 0.684204 2.98595 0.684204H11.5428C12.8424 0.684204 13.896 1.73774 13.896 3.03734V9.02716C13.896 10.3268 12.8424 11.3803 11.5428 11.3803H8.03654L5.10598 13.8004C4.68747 14.1461 4.05556 13.8484 4.05556 13.3056V11.3803H2.98595Z" fill="#00AFEF"/>
</svg>
