<svg width="14" height="15" viewBox="0 0 14 15" fill="none" xmlns="http://www.w3.org/2000/svg">
<path d="M13.2992 13.8C13.2992 14.1866 12.9858 14.5 12.5992 14.5C12.2126 14.5 11.8992 14.1866 11.8992 13.8V12.4C11.8992 11.2402 10.959 10.3 9.79922 10.3H4.19922C3.03942 10.3 2.09922 11.2402 2.09922 12.4V13.8C2.09922 14.1866 1.78582 14.5 1.39922 14.5C1.01262 14.5 0.699219 14.1866 0.699219 13.8V12.4C0.699219 10.467 2.26622 8.9 4.19922 8.9H9.79922C11.7322 8.9 13.2992 10.467 13.2992 12.4V13.8ZM6.99922 7.5C5.06622 7.5 3.49922 5.933 3.49922 4C3.49922 2.067 5.06622 0.5 6.99922 0.5C8.93221 0.5 10.4992 2.067 10.4992 4C10.4992 5.933 8.93221 7.5 6.99922 7.5ZM6.99922 6.1C8.15902 6.1 9.09922 5.1598 9.09922 4C9.09922 2.8402 8.15902 1.9 6.99922 1.9C5.83942 1.9 4.89922 2.8402 4.89922 4C4.89922 5.1598 5.83942 6.1 6.99922 6.1Z" fill="#00AFEF"/>
</svg>
