<svg width="13" height="15" viewBox="0 0 13 15" fill="none" xmlns="http://www.w3.org/2000/svg">
<path d="M0.269531 13.3574V5.91992H12.5195V13.3574C12.5195 14.0957 11.918 14.6699 11.207 14.6699H1.58203C0.84375 14.6699 0.269531 14.0957 0.269531 13.3574ZM9.01953 7.99805V9.0918C9.01953 9.2832 9.15625 9.41992 9.34766 9.41992H10.4414C10.6055 9.41992 10.7695 9.2832 10.7695 9.0918V7.99805C10.7695 7.83398 10.6055 7.66992 10.4414 7.66992H9.34766C9.15625 7.66992 9.01953 7.83398 9.01953 7.99805ZM9.01953 11.498V12.5918C9.01953 12.7832 9.15625 12.9199 9.34766 12.9199H10.4414C10.6055 12.9199 10.7695 12.7832 10.7695 12.5918V11.498C10.7695 11.334 10.6055 11.1699 10.4414 11.1699H9.34766C9.15625 11.1699 9.01953 11.334 9.01953 11.498ZM5.51953 7.99805V9.0918C5.51953 9.2832 5.65625 9.41992 5.84766 9.41992H6.94141C7.10547 9.41992 7.26953 9.2832 7.26953 9.0918V7.99805C7.26953 7.83398 7.10547 7.66992 6.94141 7.66992H5.84766C5.65625 7.66992 5.51953 7.83398 5.51953 7.99805ZM5.51953 11.498V12.5918C5.51953 12.7832 5.65625 12.9199 5.84766 12.9199H6.94141C7.10547 12.9199 7.26953 12.7832 7.26953 12.5918V11.498C7.26953 11.334 7.10547 11.1699 6.94141 11.1699H5.84766C5.65625 11.1699 5.51953 11.334 5.51953 11.498ZM2.01953 7.99805V9.0918C2.01953 9.2832 2.15625 9.41992 2.34766 9.41992H3.44141C3.60547 9.41992 3.76953 9.2832 3.76953 9.0918V7.99805C3.76953 7.83398 3.60547 7.66992 3.44141 7.66992H2.34766C2.15625 7.66992 2.01953 7.83398 2.01953 7.99805ZM2.01953 11.498V12.5918C2.01953 12.7832 2.15625 12.9199 2.34766 12.9199H3.44141C3.60547 12.9199 3.76953 12.7832 3.76953 12.5918V11.498C3.76953 11.334 3.60547 11.1699 3.44141 11.1699H2.34766C2.15625 11.1699 2.01953 11.334 2.01953 11.498ZM11.207 2.41992C11.918 2.41992 12.5195 3.02148 12.5195 3.73242V5.04492H0.269531V3.73242C0.269531 3.02148 0.84375 2.41992 1.58203 2.41992H2.89453V1.10742C2.89453 0.888672 3.08594 0.669922 3.33203 0.669922H4.20703C4.42578 0.669922 4.64453 0.888672 4.64453 1.10742V2.41992H8.14453V1.10742C8.14453 0.888672 8.33594 0.669922 8.58203 0.669922H9.45703C9.67578 0.669922 9.89453 0.888672 9.89453 1.10742V2.41992H11.207Z" fill="#00AFEF"/>
</svg>
