<svg width="35" height="34" viewBox="0 0 35 34" fill="none" xmlns="http://www.w3.org/2000/svg">
<path d="M6.3749 0.298923C5.09912 0.687206 4.01748 1.38057 3.01904 2.46221C0.99443 4.57002 0.966695 4.62549 0.883492 12.7517C0.800289 19.9349 0.800289 20.0458 1.46591 21.488C1.82646 22.2923 2.54755 23.3462 3.07451 23.8731C4.10068 24.8993 6.43037 26.1196 7.4288 26.1196C8.03896 26.1196 8.03896 26.1751 8.03896 29.7251C8.03896 32.4431 8.12216 33.3306 8.39951 33.3306C8.59365 33.3306 10.3686 31.722 12.3378 29.7251L15.9433 26.1196L22.0448 26.0919C25.9831 26.0919 28.4515 25.9532 29.0339 25.7591C30.8644 25.0657 32.3343 23.7345 33.2495 21.9595L34.1093 20.2122V13.1122C34.1093 6.26181 34.0815 5.95674 33.4436 4.62549C32.6394 2.85049 31.3081 1.51924 29.5331 0.714939C28.1464 0.0493164 28.0909 0.0493164 17.6073 0.0770493C11.8108 0.0770493 6.76318 0.187988 6.3749 0.298923ZM29.1171 1.82431C30.4761 2.54541 31.5577 3.59932 32.2511 4.90283C32.8335 5.95674 32.8612 6.37275 32.8612 13.0845C32.8612 19.8517 32.8335 20.2122 32.2511 21.2938C31.4745 22.7638 29.7272 24.2614 28.3128 24.6774C27.6472 24.8993 25.0124 25.0103 21.3237 25.0103H15.3886L12.3378 28.061L9.28701 31.1118L9.14834 28.1442L9.00966 25.1489L7.90029 24.9825C5.51513 24.5665 3.76787 23.3185 2.68623 21.2938C2.1038 20.2122 2.07607 19.8239 2.07607 13.0845C2.07607 6.70556 2.13154 5.929 2.60302 5.0415C3.60146 3.15557 5.15459 1.90752 7.06826 1.4083C7.53974 1.29736 12.4487 1.21416 18.0233 1.24189C27.3144 1.29736 28.2296 1.35283 29.1171 1.82431Z" fill="white"/>
<path d="M10.73 11.9196C9.73157 13.029 10.4804 14.7485 11.9781 14.7485C13.3925 14.7485 14.1413 12.8349 13.0874 11.8919C12.4218 11.2817 11.2847 11.3095 10.73 11.9196ZM12.3663 12.8349C12.6437 13.3063 12.0058 13.8333 11.6175 13.445C11.2847 13.1122 11.5066 12.5298 11.9226 12.5298C12.0613 12.5298 12.2554 12.6685 12.3663 12.8349Z" fill="white"/>
<path d="M16.276 11.9196C15.6659 12.5853 15.6936 13.7224 16.3038 14.2771C17.4131 15.2755 19.1327 14.5267 19.1327 13.029C19.1327 11.6146 17.219 10.8657 16.276 11.9196ZM17.9123 12.8349C18.1897 13.3064 17.5518 13.8333 17.1635 13.445C16.8307 13.1122 17.0526 12.5298 17.4686 12.5298C17.6073 12.5298 17.8014 12.6685 17.9123 12.8349Z" fill="white"/>
<path d="M21.8229 11.9196C21.2127 12.5853 21.2405 13.7224 21.8506 14.2771C22.96 15.2755 24.6795 14.5267 24.6795 13.029C24.6795 11.6146 22.7659 10.8657 21.8229 11.9196ZM23.4592 12.8349C23.7366 13.3064 23.0987 13.8333 22.7104 13.445C22.3776 13.1122 22.5995 12.5298 23.0155 12.5298C23.1541 12.5298 23.3483 12.6685 23.4592 12.8349Z" fill="white"/>
</svg>
