<svg width="13" height="13" viewBox="0 0 13 13" fill="none" xmlns="http://www.w3.org/2000/svg">
<g clip-path="url(#clip0_99_237)">
<path d="M6.53171 11.7503C6.38274 11.7511 6.23689 11.7076 6.11275 11.6253C5.98861 11.5429 5.8918 11.4255 5.83468 11.2879C5.77755 11.1503 5.76269 10.9988 5.792 10.8528C5.8213 10.7067 5.89343 10.5727 5.99921 10.4678L9.97421 6.50027L5.99921 2.53276C5.87634 2.38929 5.81213 2.20473 5.81942 2.01597C5.82671 1.82722 5.90496 1.64816 6.03853 1.51459C6.17211 1.38102 6.35116 1.30277 6.53992 1.29548C6.72867 1.28819 6.91323 1.3524 7.05671 1.47527L11.5567 5.97527C11.6964 6.11579 11.7748 6.30588 11.7748 6.50401C11.7748 6.70215 11.6964 6.89224 11.5567 7.03276L7.05671 11.5328C6.91701 11.6713 6.72846 11.7494 6.53171 11.7503Z" fill="white"/>
<path d="M2.03366 11.7501C1.88469 11.751 1.73884 11.7075 1.6147 11.6251C1.49056 11.5428 1.39375 11.4253 1.33663 11.2878C1.27951 11.1502 1.26465 10.9987 1.29395 10.8526C1.32325 10.7066 1.39538 10.5725 1.50116 10.4676L5.47616 6.50014L1.50116 2.53264C1.35993 2.39141 1.28059 2.19987 1.28059 2.00014C1.28059 1.80041 1.35993 1.60887 1.50116 1.46764C1.64238 1.32641 1.83393 1.24707 2.03366 1.24707C2.23338 1.24707 2.42493 1.32641 2.56616 1.46764L7.06616 5.96764C7.20585 6.10816 7.28425 6.29825 7.28425 6.49639C7.28425 6.69453 7.20585 6.88462 7.06616 7.02514L2.56616 11.5251C2.4967 11.596 2.41386 11.6524 2.32246 11.691C2.23105 11.7296 2.13289 11.7497 2.03366 11.7501Z" fill="white"/>
</g>
<defs>
<clipPath id="clip0_99_237">
<rect width="12" height="12" fill="white" transform="translate(0.339844 0.5)"/>
</clipPath>
</defs>
</svg>
