<svg width="25" height="22" viewBox="0 0 25 22" fill="none" xmlns="http://www.w3.org/2000/svg">
<g clip-path="url(#clip0_99_289)">
<g clip-path="url(#clip1_99_289)">
<path d="M24.5345 1.42265C24.6515 0.878016 24.1175 0.418787 23.5967 0.617535L1.00311 9.24245C0.870274 9.29317 0.755938 9.38296 0.675185 9.49999C0.594432 9.61702 0.551057 9.75578 0.550783 9.89797C0.550508 10.0402 0.593348 10.1791 0.673649 10.2964C0.75395 10.4138 0.867939 10.504 1.00058 10.5552L7.34753 13.0065V20.7274C7.34752 20.8856 7.40086 21.0392 7.49895 21.1633C7.59703 21.2875 7.73412 21.3749 7.88804 21.4115C8.04196 21.4481 8.20373 21.4317 8.34718 21.365C8.49064 21.2982 8.60739 21.1851 8.67858 21.0438L11.3036 15.8347L17.7097 20.5889C18.0993 20.8781 18.6595 20.6941 18.8012 20.2294C24.7824 0.619083 24.5238 1.47192 24.5345 1.42265ZM18.9573 3.89379L7.95099 11.7321L3.21535 9.90315L18.9573 3.89379ZM8.75376 12.8868L18.3475 6.05447C10.0922 14.7633 10.5234 14.3049 10.4874 14.3534C10.4339 14.4253 10.5804 14.1449 8.75376 17.7697V12.8868ZM17.747 18.8654L12.1082 14.6807L22.3039 3.92472L17.747 18.8654Z" fill="white"/>
</g>
</g>
<defs>
<clipPath id="clip0_99_289">
<rect width="24" height="22" fill="white" transform="translate(0.550781)"/>
</clipPath>
<clipPath id="clip1_99_289">
<rect width="24" height="22" fill="white" transform="translate(0.550781)"/>
</clipPath>
</defs>
</svg>
