<svg width="21" height="16" viewBox="0 0 21 16" fill="none" xmlns="http://www.w3.org/2000/svg">
<g clip-path="url(#clip0_99_229)">
<g clip-path="url(#clip1_99_229)">
<path fill-rule="evenodd" clip-rule="evenodd" d="M18.5016 11.5691C18.5016 13.258 17.1278 14.6297 15.441 14.6297H5.39976C3.71301 14.6297 2.33914 13.258 2.33914 11.5691V5.18C2.33876 4.63568 2.48459 4.10124 2.76137 3.63254L7.6609 8.53207C8.39391 9.26723 9.37551 9.6723 10.4214 9.6723C11.4652 9.6723 12.4468 9.26723 13.1798 8.53207L18.0794 3.63254C18.3562 4.10123 18.502 4.63567 18.5016 5.18V11.5691ZM15.441 2.11941H5.39976C4.7032 2.11941 4.06019 2.35516 3.54582 2.74738L8.49465 7.69836C9.00691 8.20844 9.69058 8.49137 10.4214 8.49137C11.1501 8.49137 11.8339 8.20844 12.3461 7.69836L17.2949 2.74738C16.7806 2.35516 16.1376 2.11941 15.441 2.11941ZM15.441 0.938477H5.39976C3.06144 0.938477 1.1582 2.84172 1.1582 5.18004V11.5692C1.1582 13.9096 3.06144 15.8107 5.39976 15.8107H15.441C17.7793 15.8107 19.6826 13.9096 19.6826 11.5692V5.18C19.6826 2.84168 17.7793 0.938477 15.441 0.938477Z" fill="#F8BC24"/>
</g>
</g>
<defs>
<clipPath id="clip0_99_229">
<rect width="20" height="16" fill="white" transform="translate(0.419922)"/>
</clipPath>
<clipPath id="clip1_99_229">
<rect width="20" height="16" fill="white" transform="translate(0.419922)"/>
</clipPath>
</defs>
</svg>
