<svg width="21" height="20" viewBox="0 0 21 20" fill="none" xmlns="http://www.w3.org/2000/svg">
<g clip-path="url(#clip0_99_221)">
<g clip-path="url(#clip1_99_221)">
<g clip-path="url(#clip2_99_221)">
<path d="M19.1918 13.9963C19.1587 13.9688 15.4112 11.3025 14.3993 11.4656C13.9112 11.5519 13.6324 11.885 13.073 12.5512C12.9184 12.7367 12.7602 12.9193 12.5987 13.0988C12.2451 12.9836 11.9003 12.8432 11.5668 12.6788C9.84525 11.8406 8.45429 10.4497 7.61617 8.72812C7.45171 8.39464 7.31135 8.0498 7.19617 7.69625C7.37992 7.52812 7.63742 7.31125 7.74742 7.21875C8.41054 6.6625 8.74304 6.38312 8.8293 5.89437C9.00617 4.8825 6.32617 1.13625 6.29867 1.1025C6.17662 0.92941 6.01767 0.785578 5.83328 0.681386C5.64889 0.577193 5.44366 0.515241 5.23242 0.5C4.14617 0.5 1.04492 4.5225 1.04492 5.20062C1.04492 5.24 1.1018 9.2425 6.03742 14.2631C11.0524 19.1931 15.0549 19.25 15.0943 19.25C15.7718 19.25 19.7949 16.1487 19.7949 15.0625C19.7795 14.8512 19.7174 14.646 19.6131 14.4616C19.5088 14.2772 19.3649 14.1183 19.1918 13.9963ZM15.0249 17.9963C14.4824 17.95 11.1199 17.5069 6.91992 13.3813C2.77429 9.16063 2.34242 5.7925 2.29929 5.27063C3.11853 3.98478 4.10791 2.81564 5.24054 1.795C5.26554 1.82 5.29867 1.8575 5.34117 1.90625C6.20981 3.09202 6.95809 4.36142 7.57492 5.69562C7.37433 5.89742 7.16232 6.08753 6.93992 6.265C6.59504 6.52778 6.27835 6.82563 5.99492 7.15375C5.94696 7.22104 5.91282 7.29717 5.89448 7.37774C5.87613 7.4583 5.87395 7.54171 5.88804 7.62313C6.02031 8.19608 6.22289 8.75049 6.49117 9.27375C7.45235 11.2475 9.04727 12.8422 11.0211 13.8031C11.5443 14.0718 12.0987 14.2746 12.6718 14.4069C12.7532 14.4213 12.8367 14.4193 12.9173 14.4009C12.9979 14.3825 13.074 14.3482 13.1412 14.3C13.4704 14.0154 13.7693 13.6975 14.033 13.3512C14.2293 13.1175 14.4911 12.8056 14.5905 12.7175C15.9281 13.3337 17.2004 14.0829 18.388 14.9537C18.4399 14.9975 18.4768 15.0312 18.5011 15.0531C17.4805 16.1861 16.3111 17.1757 15.0249 17.995V17.9963ZM14.7949 9.25H16.0449C16.0434 7.92437 15.5161 6.65347 14.5788 5.71611C13.6414 4.77875 12.3705 4.25149 11.0449 4.25V5.5C12.0392 5.50099 12.9924 5.8964 13.6955 6.59945C14.3985 7.30249 14.7939 8.25574 14.7949 9.25Z" fill="#F8BC24"/>
<path d="M17.9199 9.25H19.1699C19.1674 7.09588 18.3106 5.03069 16.7874 3.5075C15.2642 1.9843 13.199 1.12748 11.0449 1.125V2.375C12.8676 2.37715 14.615 3.10217 15.9039 4.39102C17.1927 5.67986 17.9177 7.4273 17.9199 9.25Z" fill="#F8BC24"/>
</g>
</g>
</g>
<defs>
<clipPath id="clip0_99_221">
<rect width="20" height="19" fill="white" transform="translate(0.419922 0.5)"/>
</clipPath>
<clipPath id="clip1_99_221">
<rect width="20" height="19" fill="white" transform="translate(0.419922 0.5)"/>
</clipPath>
<clipPath id="clip2_99_221">
<rect width="20" height="19" fill="white" transform="translate(0.419922 0.5)"/>
</clipPath>
</defs>
</svg>
