<svg width="39" height="37" viewBox="0 0 39 37" fill="none" xmlns="http://www.w3.org/2000/svg">
<path d="M17.4099 0.690472C12.1958 1.4393 7.48095 6.15414 6.64892 11.4237L6.34384 13.3928L4.92939 13.5592C3.09892 13.8088 1.85087 14.6131 1.15751 15.9721C0.658292 16.9428 0.602823 17.4975 0.686026 19.9381C0.769229 22.5174 0.824698 22.8502 1.54579 23.7655C2.04501 24.4311 2.7661 24.9303 3.6536 25.2631C4.90165 25.7069 5.04032 25.8178 5.179 26.844C5.56728 29.2846 7.17587 31.6698 9.28368 33.001C10.4763 33.7498 13.0278 34.4987 14.4145 34.4987C14.9138 34.4987 15.3298 34.6096 15.3298 34.7483C15.3298 35.4416 17.077 36.6897 18.2419 36.8838C21.4591 37.3553 23.6501 36.1073 23.6501 33.7498C23.6501 32.6959 23.5114 32.3631 22.7071 31.5588C21.7919 30.6436 21.6809 30.6159 19.6563 30.6159C17.2434 30.6159 16.1618 31.0319 15.6626 32.1135C15.3852 32.7791 15.1911 32.8346 13.7212 32.8346C10.2544 32.8346 7.39775 30.3385 6.62118 26.5944C6.48251 25.901 6.53798 25.7069 7.06493 25.485C7.70282 25.2077 7.70282 25.1522 7.86923 18.1354C8.0079 10.8413 8.0911 10.342 9.36689 7.90141C9.6165 7.40219 10.2544 6.51469 10.8091 5.90453C15.4407 0.801407 23.4005 0.745937 28.0599 5.7936C30.6669 8.6225 31.1384 10.5916 31.1384 18.6901C31.1384 23.183 31.2216 25.0413 31.4712 25.2909C31.9704 25.7901 34.4665 25.6791 35.7423 25.0967C36.3802 24.8194 37.1845 24.1538 37.545 23.6545C38.1274 22.8225 38.2106 22.351 38.2938 19.8827C38.377 17.3311 38.3216 16.9428 37.7669 15.9166C36.9626 14.5022 35.8532 13.8088 34.0505 13.5592L32.636 13.3928L32.3309 11.4237C31.9427 8.87211 30.6392 6.37602 28.7255 4.46235C25.647 1.38383 21.7087 0.0803146 17.4099 0.690472ZM6.45478 19.5221V23.9596H5.09579C2.6829 23.9596 1.85087 22.5174 2.07275 18.6623C2.15595 16.8596 2.23915 16.61 3.07118 15.8889C3.76454 15.251 4.23603 15.0846 5.20673 15.0846H6.45478V19.5221ZM35.9087 15.8889C36.7407 16.61 36.8239 16.8596 36.9071 18.6623C37.129 22.5174 36.297 23.9596 33.8841 23.9596H32.5251V19.5221V15.0846H33.7731C34.7438 15.0846 35.2153 15.251 35.9087 15.8889ZM21.7642 32.4741C22.3743 33.0288 22.402 34.1659 21.7919 34.8315C21.1817 35.5248 17.9645 35.5526 17.2157 34.8592C16.6056 34.3045 16.5778 33.1674 17.188 32.5018C17.7981 31.8084 21.0153 31.7807 21.7642 32.4741Z" fill="white"/>
</svg>
