<svg width="15" height="14" viewBox="0 0 15 14" fill="none" xmlns="http://www.w3.org/2000/svg">
<path d="M3.73438 14H0.828125V4.65625H3.73438V14ZM2.26562 3.40625C1.35938 3.40625 0.609375 2.625 0.609375 1.6875C0.609375 0.78125 1.35938 0.03125 2.26562 0.03125C3.20312 0.03125 3.95312 0.78125 3.95312 1.6875C3.95312 2.625 3.20312 3.40625 2.26562 3.40625ZM14.5781 14H11.7031V9.46875C11.7031 8.375 11.6719 7 10.1719 7C8.67188 7 8.45312 8.15625 8.45312 9.375V14H5.54688V4.65625H8.32812V5.9375H8.35938C8.76562 5.21875 9.70312 4.4375 11.1094 4.4375C14.0469 4.4375 14.6094 6.375 14.6094 8.875V14H14.5781Z" fill="white"/>
</svg>
