<svg width="25" height="37" viewBox="0 0 25 37" fill="none" xmlns="http://www.w3.org/2000/svg">
<path d="M8.56172 1.27695C5.17812 2.35859 2.84844 4.41094 1.32305 7.62813C0.463281 9.43086 0.435547 9.625 0.435547 13.0918C0.463281 16.5031 0.491016 16.8359 1.35078 18.916C2.32148 21.3844 5.20586 25.9883 7.45234 28.6785L8.89453 30.398L7.53555 30.8418C6.03789 31.341 4.73438 32.3672 4.73438 33.0605C4.73438 34.9465 7.92383 36.25 12.5 36.25C17.0762 36.25 20.2656 34.9465 20.2656 33.0605C20.2656 32.3672 18.9621 31.341 17.4645 30.8418L16.1055 30.398L17.5477 28.6785C19.7664 26.016 22.6785 21.3844 23.6492 18.916C24.509 16.8082 24.5645 16.5031 24.5645 13.0918C24.5645 9.625 24.5367 9.43086 23.677 7.62813C21.5691 3.16289 17.6031 0.722267 12.4168 0.777737C11.0301 0.777737 9.53242 0.971874 8.56172 1.27695ZM14.7188 2.13672C19.1562 2.96875 22.3734 6.075 23.2887 10.4016C24.4535 15.8652 22.207 21.107 14.8852 30.0098C13.6926 31.452 12.6109 32.6445 12.4723 32.6445C12.1395 32.6445 6.75898 25.8496 5.12266 23.3535C1.10117 17.1688 0.380078 12.0656 2.87617 7.32305C4.98398 3.3293 9.8375 1.22149 14.7188 2.13672ZM10.9746 32.9219C11.5848 33.6707 12.2781 34.3086 12.5 34.3086C12.7219 34.3086 13.4152 33.6707 14.0254 32.9219C15.0238 31.6738 15.218 31.5352 15.9668 31.7016C17.2703 31.9512 18.7402 32.7277 18.8234 33.1992C19.0453 34.3918 13.9145 35.418 10.309 34.9188C8.00703 34.5859 6.12109 33.8648 6.12109 33.3102C6.12109 32.8109 6.78672 32.3672 8.11797 31.9512C9.80977 31.4242 9.7543 31.3965 10.9746 32.9219Z" fill="white"/>
<path d="M10.1429 8.15508C8.06278 9.23672 7.06435 11.1227 7.28622 13.5078C7.53583 15.9484 10.0597 18.2227 12.5003 18.2227C13.8315 18.2227 15.7452 17.1965 16.7436 15.9484C18.1304 14.2289 18.0749 11.3445 16.605 9.48633C15.3015 7.82227 12.0288 7.15664 10.1429 8.15508ZM14.4694 9.40312C18.1026 11.4277 16.6604 16.8359 12.5003 16.8359C9.42177 16.8359 7.53583 13.9238 8.86708 11.2059C9.94872 8.98711 12.3616 8.21055 14.4694 9.40312Z" fill="white"/>
</svg>
