<svg width="18" height="12" viewBox="0 0 18 12" fill="none" xmlns="http://www.w3.org/2000/svg">
<path d="M16.7656 1.90625C17.1406 3.21875 17.1406 6.03125 17.1406 6.03125C17.1406 6.03125 17.1406 8.8125 16.7656 10.1562C16.5781 10.9062 15.9844 11.4688 15.2656 11.6562C13.9219 12 8.60938 12 8.60938 12C8.60938 12 3.26562 12 1.92188 11.6562C1.20312 11.4688 0.609375 10.9062 0.421875 10.1562C0.046875 8.8125 0.046875 6.03125 0.046875 6.03125C0.046875 6.03125 0.046875 3.21875 0.421875 1.90625C0.609375 1.15625 1.20312 0.5625 1.92188 0.375C3.26562 0 8.60938 0 8.60938 0C8.60938 0 13.9219 0 15.2656 0.375C15.9844 0.5625 16.5781 1.15625 16.7656 1.90625ZM6.85938 8.5625L11.2969 6.03125L6.85938 3.5V8.5625Z" fill="white"/>
</svg>
